<?xml version="1.0" encoding="UTF-8"?>
<svg width="16px" height="16px" xmlns="http://www.w3.org/2000/svg" viewBox="0 0 810 810" version="1.2">
<g id="surface1">
<path style=" stroke:none;fill-rule:nonzero;fill:rgb(0%,0%,0%);fill-opacity:1;" d="M 625.992188 592.359375 C 614.027344 578.382812 592.964844 576.78125 578.964844 588.789062 L 441.851562 706.402344 L 441.851562 42.253906 C 441.851562 23.84375 426.953125 8.898438 408.523438 8.898438 C 390.125 8.898438 375.195312 23.84375 375.195312 42.253906 L 375.195312 701.699219 L 240.613281 588.492188 C 226.550781 576.648438 205.484375 578.515625 193.65625 592.625 C 181.824219 606.703125 183.65625 627.75 197.753906 639.589844 L 380.894531 793.628906 C 386.792969 802.933594 396.726562 809.441406 408.558594 809.441406 C 409.125 809.441406 409.558594 809.171875 410.089844 809.171875 C 410.691406 809.171875 411.257812 809.441406 411.890625 809.441406 C 419.589844 809.441406 427.320312 806.769531 433.519531 801.433594 L 622.359375 639.425781 C 636.355469 627.382812 637.988281 606.335938 625.992188 592.359375 Z M 625.992188 592.359375 "/>
</g>
</svg>
