<svg width="16px" height="16px" xmlns="http://www.w3.org/2000/svg" xmlns:xlink="http://www.w3.org/1999/xlink" viewBox="0 0 810 810" version="1.2">
<g id="surface1">
<path style=" stroke:none;fill-rule:nonzero;fill:rgb(0%,0%,0%);fill-opacity:1;" d="M 185.023438 217.640625 C 196.988281 231.617188 218.054688 233.21875 232.050781 221.210938 L 369.164062 103.597656 L 369.164062 767.746094 C 369.164062 786.15625 384.0625 801.101562 402.492188 801.101562 C 420.890625 801.101562 435.820312 786.15625 435.820312 767.746094 L 435.820312 108.300781 L 570.402344 221.507812 C 584.46875 233.351562 605.53125 231.484375 617.363281 217.375 C 629.195312 203.296875 627.359375 182.25 613.261719 170.410156 L 430.121094 16.371094 C 424.222656 7.066406 414.292969 0.558594 402.460938 0.558594 C 401.894531 0.558594 401.460938 0.828125 400.925781 0.828125 C 400.328125 0.828125 399.761719 0.558594 399.128906 0.558594 C 391.429688 0.558594 383.695312 3.230469 377.496094 8.566406 L 188.65625 170.574219 C 174.660156 182.617188 173.027344 203.664062 185.023438 217.640625 Z M 185.023438 217.640625 "/>
</g>
</svg>
